<svg xmlns="http://www.w3.org/2000/svg" viewBox="0 0 184 88" shape-rendering="crispEdges"><path fill="#ffd23d" d="M169 2h7v1h-7zM153 3h24v1h-24zM138 4h25v1h-25zM174 4h5v1h-5zM122 5h26v1h-26zM175 5h5v1h-5zM107 6h25v1h-25zM176 6h5v1h-5zM91 7h25v1h-25zM177 7h3v1h-3zM76 8h25v1h-25zM177 8h2v1h-2zM59 9h15v1h-15zM75 9h11v1h-11zM177 9h2v1h-2zM44 10h25v1h-25zM72 10h4v1h-4zM176 10h2v1h-2zM29 11h25v1h-25zM73 11h2v1h-2zM175 11h2v1h-2zM20 12h18v1h-18zM174 12h3v1h-3zM19 13h4v1h-4zM174 13h2v1h-2zM18 14h3v1h-3zM174 14h2v1h-2zM18 15h2v1h-2zM174 15h2v1h-2zM17 16h2v1h-2zM174 16h1v1h-1zM17 17h2v1h-2zM173 17h2v1h-2zM17 18h2v1h-2zM173 18h2v1h-2zM17 19h2v1h-2zM173 19h2v1h-2zM17 20h2v1h-2zM173 20h1v1h-1zM17 21h1v1h-1zM172 21h2v1h-2zM17 22h1v1h-1zM172 22h2v1h-2zM17 23h1v1h-1zM172 23h1v1h-1zM16 24h2v1h-2zM171 24h2v1h-2zM16 25h2v1h-2zM171 25h2v1h-2zM16 26h2v1h-2zM171 26h1v1h-1zM16 27h2v1h-2zM170 27h2v1h-2zM16 28h2v1h-2zM170 28h3v1h-3zM16 29h1v1h-1zM171 29h3v1h-3zM16 30h1v1h-1zM171 30h4v1h-4zM15 31h2v1h-2zM172 31h4v1h-4zM14 32h2v1h-2zM173 32h2v1h-2zM13 33h2v1h-2zM132 33h3v1h-3zM173 33h2v1h-2zM12 34h2v1h-2zM107 34h2v1h-2zM131 34h4v1h-4zM173 34h1v1h-1zM11 35h2v1h-2zM105 35h4v1h-4zM130 35h2v1h-2zM134 35h1v1h-1zM172 35h2v1h-2zM10 36h3v1h-3zM78 36h4v1h-4zM104 36h2v1h-2zM108 36h1v1h-1zM129 36h2v1h-2zM134 36h2v1h-2zM171 36h2v1h-2zM9 37h5v1h-5zM78 37h4v1h-4zM103 37h2v1h-2zM108 37h1v1h-1zM129 37h2v1h-2zM134 37h2v1h-2zM171 37h1v1h-1zM10 38h5v1h-5zM50 38h4v1h-4zM78 38h4v1h-4zM103 38h2v1h-2zM107 38h2v1h-2zM128 38h2v1h-2zM135 38h1v1h-1zM170 38h2v1h-2zM11 39h6v1h-6zM50 39h4v1h-4zM78 39h4v1h-4zM102 39h2v1h-2zM107 39h2v1h-2zM128 39h1v1h-1zM135 39h2v1h-2zM169 39h2v1h-2zM12 40h5v1h-5zM50 40h3v1h-3zM78 40h4v1h-4zM101 40h2v1h-2zM107 40h2v1h-2zM128 40h1v1h-1zM135 40h2v1h-2zM169 40h2v1h-2zM13 41h4v1h-4zM50 41h3v1h-3zM78 41h4v1h-4zM101 41h2v1h-2zM107 41h2v1h-2zM127 41h2v1h-2zM136 41h1v1h-1zM168 41h2v1h-2zM15 42h2v1h-2zM50 42h3v1h-3zM78 42h4v1h-4zM101 42h1v1h-1zM107 42h2v1h-2zM127 42h2v1h-2zM136 42h2v1h-2zM168 42h2v1h-2zM15 43h1v1h-1zM50 43h2v1h-2zM78 43h3v1h-3zM101 43h1v1h-1zM107 43h1v1h-1zM127 43h2v1h-2zM136 43h2v1h-2zM167 43h2v1h-2zM15 44h1v1h-1zM50 44h2v1h-2zM78 44h3v1h-3zM101 44h1v1h-1zM107 44h1v1h-1zM127 44h2v1h-2zM137 44h1v1h-1zM167 44h1v1h-1zM15 45h1v1h-1zM50 45h1v1h-1zM79 45h2v1h-2zM100 45h2v1h-2zM107 45h1v1h-1zM127 45h2v1h-2zM137 45h2v1h-2zM166 45h2v1h-2zM14 46h2v1h-2zM79 46h2v1h-2zM100 46h2v1h-2zM106 46h2v1h-2zM127 46h1v1h-1zM137 46h2v1h-2zM165 46h2v1h-2zM14 47h2v1h-2zM79 47h2v1h-2zM100 47h2v1h-2zM106 47h2v1h-2zM127 47h1v1h-1zM138 47h1v1h-1zM165 47h2v1h-2zM14 48h2v1h-2zM79 48h2v1h-2zM100 48h2v1h-2zM106 48h2v1h-2zM127 48h1v1h-1zM138 48h2v1h-2zM164 48h2v1h-2zM14 49h2v1h-2zM79 49h2v1h-2zM100 49h2v1h-2zM106 49h2v1h-2zM126 49h2v1h-2zM138 49h2v1h-2zM164 49h2v1h-2zM14 50h2v1h-2zM79 50h1v1h-1zM100 50h1v1h-1zM106 50h2v1h-2zM126 50h2v1h-2zM139 50h2v1h-2zM163 50h2v1h-2zM14 51h1v1h-1zM100 51h1v1h-1zM106 51h1v1h-1zM126 51h2v1h-2zM139 51h2v1h-2zM162 51h2v1h-2zM14 52h1v1h-1zM100 52h1v1h-1zM106 52h1v1h-1zM126 52h2v1h-2zM140 52h1v1h-1zM162 52h2v1h-2zM14 53h1v1h-1zM99 53h2v1h-2zM106 53h1v1h-1zM126 53h9v1h-9zM139 53h2v1h-2zM161 53h2v1h-2zM13 54h2v1h-2zM99 54h2v1h-2zM105 54h2v1h-2zM126 54h11v1h-11zM139 54h2v1h-2zM161 54h2v1h-2zM13 55h2v1h-2zM99 55h8v1h-8zM134 55h4v1h-4zM139 55h2v1h-2zM160 55h2v1h-2zM13 56h2v1h-2zM99 56h8v1h-8zM136 56h5v1h-5zM160 56h2v1h-2zM13 57h2v1h-2zM137 57h4v1h-4zM160 57h2v1h-2zM12 58h3v1h-3zM138 58h2v1h-2zM160 58h2v1h-2zM12 59h2v1h-2zM138 59h2v1h-2zM160 59h1v1h-1zM12 60h2v1h-2zM138 60h2v1h-2zM160 60h1v1h-1zM12 61h2v1h-2zM138 61h2v1h-2zM160 61h1v1h-1zM12 62h2v1h-2zM138 62h2v1h-2zM159 62h2v1h-2zM12 63h2v1h-2zM138 63h2v1h-2zM159 63h2v1h-2zM12 64h2v1h-2zM137 64h3v1h-3zM159 64h2v1h-2zM12 65h2v1h-2zM137 65h2v1h-2zM159 65h2v1h-2zM12 66h2v1h-2zM137 66h1v1h-1zM159 66h1v1h-1zM12 67h1v1h-1zM159 67h1v1h-1zM12 68h1v1h-1zM159 68h1v1h-1zM11 69h2v1h-2zM158 69h2v1h-2zM11 70h2v1h-2zM158 70h2v1h-2zM11 71h2v1h-2zM157 71h2v1h-2zM11 72h2v1h-2zM156 72h2v1h-2zM10 73h2v1h-2zM155 73h2v1h-2zM9 74h2v1h-2zM149 74h7v1h-7zM8 75h2v1h-2zM134 75h21v1h-21zM7 76h2v1h-2zM118 76h26v1h-26zM6 77h2v1h-2zM103 77h25v1h-25zM5 78h2v1h-2zM87 78h26v1h-26zM4 79h3v1h-3zM72 79h25v1h-25zM3 80h5v1h-5zM56 80h26v1h-26zM3 81h6v1h-6zM41 81h25v1h-25zM5 82h5v1h-5zM25 82h26v1h-26zM6 83h29v1h-29zM7 84h13v1h-13z"/><path fill="#112419" d="M163 4h11v1h-11zM148 5h27v1h-27zM132 6h34v1h-34zM169 6h7v1h-7zM116 7h35v1h-35zM153 7h3v1h-3zM160 7h3v1h-3zM168 7h9v1h-9zM101 8h35v1h-35zM145 8h2v1h-2zM152 8h3v1h-3zM160 8h3v1h-3zM168 8h9v1h-9zM86 9h34v1h-34zM125 9h7v1h-7zM145 9h2v1h-2zM152 9h3v1h-3zM160 9h3v1h-3zM167 9h10v1h-10zM69 10h3v1h-3zM76 10h31v1h-31zM113 10h7v1h-7zM125 10h8v1h-8zM145 10h2v1h-2zM152 10h3v1h-3zM160 10h2v1h-2zM167 10h9v1h-9zM54 11h19v1h-19zM75 11h17v1h-17zM104 11h3v1h-3zM112 11h8v1h-8zM125 11h8v1h-8zM144 11h4v1h-4zM152 11h3v1h-3zM160 11h2v1h-2zM167 11h8v1h-8zM38 12h40v1h-40zM82 12h3v1h-3zM89 12h3v1h-3zM104 12h3v1h-3zM112 12h8v1h-8zM125 12h7v1h-7zM137 12h2v1h-2zM144 12h4v1h-4zM152 12h2v1h-2zM160 12h2v1h-2zM167 12h7v1h-7zM23 13h36v1h-36zM70 13h7v1h-7zM82 13h2v1h-2zM89 13h3v1h-3zM104 13h3v1h-3zM112 13h8v1h-8zM124 13h8v1h-8zM137 13h3v1h-3zM144 13h4v1h-4zM152 13h2v1h-2zM160 13h2v1h-2zM166 13h8v1h-8zM21 14h23v1h-23zM49 14h2v1h-2zM56 14h3v1h-3zM70 14h7v1h-7zM82 14h2v1h-2zM89 14h3v1h-3zM104 14h3v1h-3zM112 14h8v1h-8zM124 14h8v1h-8zM137 14h2v1h-2zM144 14h4v1h-4zM152 14h2v1h-2zM160 14h1v1h-1zM166 14h8v1h-8zM20 15h8v1h-8zM33 15h3v1h-3zM41 15h3v1h-3zM49 15h2v1h-2zM56 15h3v1h-3zM69 15h8v1h-8zM81 15h3v1h-3zM89 15h3v1h-3zM97 15h2v1h-2zM104 15h3v1h-3zM112 15h7v1h-7zM124 15h8v1h-8zM137 15h2v1h-2zM144 15h4v1h-4zM152 15h2v1h-2zM160 15h1v1h-1zM166 15h8v1h-8zM19 16h4v1h-4zM32 16h4v1h-4zM41 16h3v1h-3zM49 16h2v1h-2zM56 16h3v1h-3zM69 16h8v1h-8zM81 16h3v1h-3zM88 16h4v1h-4zM96 16h3v1h-3zM104 16h3v1h-3zM111 16h8v1h-8zM124 16h8v1h-8zM137 16h2v1h-2zM144 16h4v1h-4zM152 16h2v1h-2zM160 16h1v1h-1zM165 16h9v1h-9zM19 17h3v1h-3zM33 17h3v1h-3zM40 17h4v1h-4zM49 17h2v1h-2zM56 17h3v1h-3zM64 17h3v1h-3zM69 17h7v1h-7zM81 17h3v1h-3zM88 17h4v1h-4zM96 17h3v1h-3zM103 17h4v1h-4zM111 17h8v1h-8zM124 17h8v1h-8zM136 17h3v1h-3zM144 17h4v1h-4zM152 17h1v1h-1zM160 17h1v1h-1zM165 17h8v1h-8zM19 18h3v1h-3zM34 18h2v1h-2zM40 18h4v1h-4zM49 18h2v1h-2zM55 18h4v1h-4zM63 18h13v1h-13zM81 18h3v1h-3zM88 18h3v1h-3zM96 18h3v1h-3zM103 18h4v1h-4zM111 18h8v1h-8zM124 18h8v1h-8zM136 18h3v1h-3zM144 18h4v1h-4zM152 18h1v1h-1zM156 18h1v1h-1zM165 18h8v1h-8zM19 19h3v1h-3zM26 19h3v1h-3zM34 19h2v1h-2zM40 19h3v1h-3zM50 19h1v1h-1zM55 19h4v1h-4zM63 19h13v1h-13zM81 19h2v1h-2zM88 19h3v1h-3zM96 19h3v1h-3zM103 19h3v1h-3zM111 19h8v1h-8zM124 19h8v1h-8zM136 19h3v1h-3zM143 19h5v1h-5zM156 19h1v1h-1zM165 19h8v1h-8zM19 20h2v1h-2zM26 20h3v1h-3zM33 20h3v1h-3zM40 20h3v1h-3zM55 20h3v1h-3zM68 20h8v1h-8zM88 20h3v1h-3zM96 20h2v1h-2zM103 20h3v1h-3zM111 20h8v1h-8zM123 20h8v1h-8zM136 20h3v1h-3zM143 20h5v1h-5zM156 20h1v1h-1zM164 20h9v1h-9zM18 21h3v1h-3zM26 21h3v1h-3zM33 21h2v1h-2zM40 21h3v1h-3zM55 21h3v1h-3zM68 21h8v1h-8zM88 21h3v1h-3zM96 21h2v1h-2zM103 21h3v1h-3zM111 21h8v1h-8zM123 21h5v1h-5zM129 21h2v1h-2zM136 21h2v1h-2zM143 21h5v1h-5zM155 21h2v1h-2zM164 21h8v1h-8zM18 22h3v1h-3zM26 22h3v1h-3zM33 22h2v1h-2zM40 22h3v1h-3zM55 22h3v1h-3zM68 22h8v1h-8zM88 22h3v1h-3zM96 22h2v1h-2zM103 22h3v1h-3zM111 22h4v1h-4zM116 22h3v1h-3zM123 22h4v1h-4zM129 22h2v1h-2zM143 22h5v1h-5zM155 22h1v1h-1zM164 22h8v1h-8zM18 23h3v1h-3zM26 23h2v1h-2zM33 23h2v1h-2zM40 23h3v1h-3zM55 23h3v1h-3zM67 23h9v1h-9zM88 23h3v1h-3zM95 23h3v1h-3zM103 23h3v1h-3zM110 23h4v1h-4zM116 23h2v1h-2zM129 23h2v1h-2zM143 23h5v1h-5zM155 23h1v1h-1zM163 23h9v1h-9zM18 24h3v1h-3zM33 24h2v1h-2zM40 24h3v1h-3zM55 24h3v1h-3zM63 24h13v1h-13zM80 24h3v1h-3zM87 24h4v1h-4zM95 24h3v1h-3zM102 24h4v1h-4zM116 24h2v1h-2zM129 24h2v1h-2zM143 24h5v1h-5zM155 24h1v1h-1zM163 24h8v1h-8zM18 25h3v1h-3zM32 25h3v1h-3zM39 25h4v1h-4zM47 25h1v1h-1zM54 25h4v1h-4zM62 25h5v1h-5zM68 25h8v1h-8zM80 25h3v1h-3zM87 25h4v1h-4zM102 25h4v1h-4zM116 25h2v1h-2zM129 25h2v1h-2zM143 25h5v1h-5zM150 25h21v1h-21zM18 26h3v1h-3zM31 26h4v1h-4zM39 26h3v1h-3zM47 26h1v1h-1zM54 26h4v1h-4zM62 26h4v1h-4zM68 26h7v1h-7zM80 26h3v1h-3zM87 26h3v1h-3zM102 26h3v1h-3zM116 26h2v1h-2zM128 26h2v1h-2zM134 26h37v1h-37zM18 27h3v1h-3zM26 27h9v1h-9zM39 27h3v1h-3zM47 27h1v1h-1zM54 27h3v1h-3zM68 27h7v1h-7zM80 27h2v1h-2zM87 27h3v1h-3zM102 27h3v1h-3zM116 27h2v1h-2zM119 27h51v1h-51zM18 28h3v1h-3zM25 28h9v1h-9zM39 28h3v1h-3zM47 28h1v1h-1zM54 28h3v1h-3zM68 28h7v1h-7zM80 28h2v1h-2zM87 28h3v1h-3zM102 28h68v1h-68zM17 29h3v1h-3zM25 29h9v1h-9zM39 29h3v1h-3zM47 29h1v1h-1zM54 29h3v1h-3zM68 29h7v1h-7zM79 29h2v1h-2zM86 29h71v1h-71zM165 29h6v1h-6zM17 30h3v1h-3zM25 30h9v1h-9zM39 30h3v1h-3zM47 30h1v1h-1zM54 30h3v1h-3zM67 30h70v1h-70zM147 30h9v1h-9zM163 30h8v1h-8zM17 31h3v1h-3zM25 31h9v1h-9zM39 31h3v1h-3zM47 31h1v1h-1zM54 31h66v1h-66zM124 31h12v1h-12zM145 31h10v1h-10zM164 31h8v1h-8zM16 32h4v1h-4zM24 32h9v1h-9zM39 32h71v1h-71zM123 32h14v1h-14zM147 32h8v1h-8zM164 32h9v1h-9zM15 33h4v1h-4zM23 33h66v1h-66zM96 33h15v1h-15zM122 33h10v1h-10zM135 33h2v1h-2zM147 33h7v1h-7zM163 33h10v1h-10zM14 34h69v1h-69zM96 34h11v1h-11zM109 34h2v1h-2zM122 34h9v1h-9zM135 34h3v1h-3zM147 34h7v1h-7zM163 34h10v1h-10zM13 35h45v1h-45zM72 35h12v1h-12zM95 35h10v1h-10zM109 35h3v1h-3zM122 35h8v1h-8zM135 35h3v1h-3zM148 35h5v1h-5zM162 35h10v1h-10zM13 36h29v1h-29zM44 36h13v1h-13zM72 36h6v1h-6zM82 36h2v1h-2zM95 36h9v1h-9zM109 36h2v1h-2zM122 36h7v1h-7zM136 36h2v1h-2zM148 36h4v1h-4zM162 36h9v1h-9zM14 37h13v1h-13zM43 37h13v1h-13zM72 37h6v1h-6zM82 37h2v1h-2zM94 37h9v1h-9zM109 37h2v1h-2zM121 37h8v1h-8zM136 37h3v1h-3zM148 37h4v1h-4zM161 37h10v1h-10zM15 38h7v1h-7zM40 38h10v1h-10zM54 38h2v1h-2zM72 38h6v1h-6zM82 38h2v1h-2zM94 38h9v1h-9zM109 38h2v1h-2zM121 38h7v1h-7zM136 38h3v1h-3zM149 38h2v1h-2zM161 38h9v1h-9zM17 39h4v1h-4zM42 39h8v1h-8zM54 39h2v1h-2zM72 39h6v1h-6zM82 39h2v1h-2zM94 39h8v1h-8zM109 39h2v1h-2zM121 39h7v1h-7zM137 39h2v1h-2zM149 39h2v1h-2zM160 39h9v1h-9zM17 40h3v1h-3zM43 40h7v1h-7zM53 40h2v1h-2zM72 40h6v1h-6zM82 40h2v1h-2zM94 40h7v1h-7zM109 40h2v1h-2zM121 40h7v1h-7zM137 40h3v1h-3zM159 40h10v1h-10zM17 41h2v1h-2zM44 41h6v1h-6zM53 41h2v1h-2zM72 41h6v1h-6zM82 41h2v1h-2zM94 41h7v1h-7zM109 41h2v1h-2zM121 41h6v1h-6zM137 41h3v1h-3zM159 41h9v1h-9zM17 42h2v1h-2zM45 42h5v1h-5zM53 42h2v1h-2zM72 42h6v1h-6zM82 42h2v1h-2zM94 42h7v1h-7zM109 42h2v1h-2zM121 42h6v1h-6zM138 42h2v1h-2zM158 42h10v1h-10zM16 43h3v1h-3zM45 43h5v1h-5zM52 43h3v1h-3zM72 43h6v1h-6zM81 43h2v1h-2zM94 43h7v1h-7zM108 43h3v1h-3zM121 43h6v1h-6zM138 43h3v1h-3zM158 43h9v1h-9zM16 44h3v1h-3zM45 44h5v1h-5zM52 44h2v1h-2zM72 44h6v1h-6zM81 44h2v1h-2zM94 44h7v1h-7zM108 44h2v1h-2zM121 44h6v1h-6zM138 44h3v1h-3zM157 44h10v1h-10zM16 45h3v1h-3zM29 45h5v1h-5zM45 45h5v1h-5zM51 45h3v1h-3zM72 45h7v1h-7zM81 45h2v1h-2zM93 45h7v1h-7zM108 45h2v1h-2zM120 45h7v1h-7zM139 45h2v1h-2zM157 45h9v1h-9zM16 46h2v1h-2zM29 46h6v1h-6zM44 46h10v1h-10zM72 46h7v1h-7zM81 46h2v1h-2zM93 46h7v1h-7zM108 46h2v1h-2zM120 46h7v1h-7zM139 46h3v1h-3zM156 46h9v1h-9zM16 47h2v1h-2zM28 47h7v1h-7zM44 47h9v1h-9zM62 47h1v1h-1zM72 47h7v1h-7zM81 47h2v1h-2zM93 47h7v1h-7zM108 47h2v1h-2zM120 47h7v1h-7zM139 47h3v1h-3zM155 47h10v1h-10zM16 48h2v1h-2zM28 48h7v1h-7zM44 48h9v1h-9zM62 48h1v1h-1zM72 48h7v1h-7zM81 48h2v1h-2zM93 48h7v1h-7zM108 48h2v1h-2zM120 48h7v1h-7zM140 48h2v1h-2zM155 48h9v1h-9zM16 49h2v1h-2zM28 49h6v1h-6zM44 49h9v1h-9zM62 49h1v1h-1zM72 49h7v1h-7zM81 49h2v1h-2zM93 49h7v1h-7zM108 49h2v1h-2zM120 49h6v1h-6zM140 49h3v1h-3zM154 49h10v1h-10zM16 50h2v1h-2zM28 50h6v1h-6zM44 50h8v1h-8zM62 50h1v1h-1zM72 50h7v1h-7zM80 50h3v1h-3zM93 50h7v1h-7zM108 50h2v1h-2zM120 50h6v1h-6zM141 50h2v1h-2zM154 50h9v1h-9zM15 51h3v1h-3zM28 51h6v1h-6zM44 51h8v1h-8zM61 51h2v1h-2zM72 51h10v1h-10zM93 51h7v1h-7zM107 51h2v1h-2zM120 51h6v1h-6zM141 51h2v1h-2zM153 51h9v1h-9zM15 52h3v1h-3zM28 52h6v1h-6zM44 52h8v1h-8zM61 52h2v1h-2zM73 52h9v1h-9zM92 52h8v1h-8zM107 52h2v1h-2zM119 52h7v1h-7zM141 52h2v1h-2zM153 52h9v1h-9zM15 53h3v1h-3zM28 53h6v1h-6zM43 53h9v1h-9zM61 53h2v1h-2zM73 53h9v1h-9zM92 53h7v1h-7zM107 53h2v1h-2zM119 53h7v1h-7zM141 53h2v1h-2zM153 53h8v1h-8zM15 54h2v1h-2zM28 54h5v1h-5zM43 54h8v1h-8zM61 54h2v1h-2zM73 54h9v1h-9zM92 54h7v1h-7zM107 54h2v1h-2zM119 54h7v1h-7zM141 54h2v1h-2zM153 54h8v1h-8zM15 55h2v1h-2zM43 55h8v1h-8zM60 55h3v1h-3zM73 55h9v1h-9zM92 55h7v1h-7zM107 55h2v1h-2zM119 55h15v1h-15zM141 55h2v1h-2zM153 55h7v1h-7zM15 56h2v1h-2zM42 56h9v1h-9zM60 56h3v1h-3zM73 56h9v1h-9zM92 56h7v1h-7zM107 56h2v1h-2zM119 56h17v1h-17zM141 56h2v1h-2zM153 56h7v1h-7zM15 57h2v1h-2zM42 57h8v1h-8zM60 57h3v1h-3zM73 57h9v1h-9zM92 57h17v1h-17zM119 57h9v1h-9zM131 57h6v1h-6zM141 57h2v1h-2zM153 57h7v1h-7zM15 58h2v1h-2zM41 58h9v1h-9zM73 58h9v1h-9zM92 58h17v1h-17zM119 58h9v1h-9zM131 58h7v1h-7zM140 58h3v1h-3zM153 58h7v1h-7zM14 59h5v1h-5zM39 59h11v1h-11zM73 59h8v1h-8zM92 59h9v1h-9zM104 59h4v1h-4zM119 59h8v1h-8zM131 59h7v1h-7zM140 59h2v1h-2zM152 59h8v1h-8zM14 60h3v1h-3zM38 60h11v1h-11zM73 60h8v1h-8zM91 60h9v1h-9zM104 60h4v1h-4zM118 60h8v1h-8zM131 60h7v1h-7zM140 60h2v1h-2zM152 60h8v1h-8zM14 61h2v1h-2zM38 61h11v1h-11zM73 61h8v1h-8zM91 61h9v1h-9zM104 61h4v1h-4zM131 61h7v1h-7zM140 61h2v1h-2zM152 61h8v1h-8zM14 62h2v1h-2zM27 62h1v1h-1zM38 62h11v1h-11zM73 62h8v1h-8zM91 62h8v1h-8zM104 62h4v1h-4zM131 62h7v1h-7zM140 62h2v1h-2zM152 62h7v1h-7zM14 63h2v1h-2zM26 63h2v1h-2zM39 63h10v1h-10zM73 63h8v1h-8zM103 63h5v1h-5zM130 63h8v1h-8zM140 63h2v1h-2zM152 63h7v1h-7zM14 64h2v1h-2zM26 64h2v1h-2zM39 64h9v1h-9zM73 64h8v1h-8zM103 64h5v1h-5zM130 64h7v1h-7zM140 64h2v1h-2zM152 64h7v1h-7zM14 65h2v1h-2zM26 65h2v1h-2zM39 65h9v1h-9zM58 65h5v1h-5zM73 65h8v1h-8zM103 65h5v1h-5zM130 65h7v1h-7zM139 65h3v1h-3zM151 65h8v1h-8zM14 66h2v1h-2zM26 66h3v1h-3zM40 66h8v1h-8zM57 66h6v1h-6zM73 66h8v1h-8zM103 66h5v1h-5zM130 66h7v1h-7zM138 66h3v1h-3zM150 66h9v1h-9zM13 67h3v1h-3zM26 67h3v1h-3zM40 67h7v1h-7zM57 67h6v1h-6zM73 67h7v1h-7zM103 67h4v1h-4zM130 67h10v1h-10zM149 67h10v1h-10zM13 68h3v1h-3zM26 68h3v1h-3zM40 68h7v1h-7zM57 68h6v1h-6zM73 68h7v1h-7zM103 68h4v1h-4zM130 68h9v1h-9zM144 68h15v1h-15zM13 69h2v1h-2zM26 69h4v1h-4zM40 69h7v1h-7zM57 69h6v1h-6zM73 69h7v1h-7zM103 69h3v1h-3zM128 69h30v1h-30zM13 70h2v1h-2zM25 70h5v1h-5zM41 70h5v1h-5zM56 70h7v1h-7zM74 70h6v1h-6zM103 70h3v1h-3zM113 70h45v1h-45zM13 71h2v1h-2zM25 71h5v1h-5zM41 71h5v1h-5zM56 71h7v1h-7zM74 71h5v1h-5zM97 71h60v1h-60zM13 72h2v1h-2zM25 72h5v1h-5zM41 72h4v1h-4zM56 72h6v1h-6zM75 72h3v1h-3zM82 72h74v1h-74zM12 73h3v1h-3zM25 73h5v1h-5zM40 73h4v1h-4zM57 73h5v1h-5zM67 73h88v1h-88zM11 74h3v1h-3zM24 74h5v1h-5zM39 74h5v1h-5zM51 74h98v1h-98zM10 75h3v1h-3zM23 75h5v1h-5zM36 75h98v1h-98zM9 76h4v1h-4zM20 76h98v1h-98zM8 77h95v1h-95zM7 78h80v1h-80zM7 79h65v1h-65zM8 80h48v1h-48zM9 81h32v1h-32zM10 82h15v1h-15z"/><path fill="#8c8c8c" d="M166 6h3v1h-3zM151 7h2v1h-2zM156 7h4v1h-4zM163 7h5v1h-5zM136 8h9v1h-9zM147 8h5v1h-5zM120 9h5v1h-5zM132 9h3v1h-3zM107 10h6v1h-6zM92 11h1v1h-1z"/><path fill="#aaaaaa" d="M155 8h5v1h-5zM163 8h5v1h-5zM135 9h10v1h-10zM147 9h5v1h-5zM155 9h5v1h-5zM163 9h4v1h-4zM120 10h5v1h-5zM133 10h12v1h-12zM147 10h5v1h-5zM155 10h5v1h-5zM162 10h5v1h-5zM93 11h11v1h-11zM107 11h5v1h-5zM120 11h5v1h-5zM133 11h11v1h-11zM148 11h4v1h-4zM155 11h5v1h-5zM162 11h5v1h-5zM78 12h4v1h-4zM85 12h4v1h-4zM92 12h12v1h-12zM107 12h5v1h-5zM120 12h5v1h-5zM132 12h5v1h-5zM139 12h5v1h-5zM148 12h4v1h-4zM154 12h6v1h-6zM162 12h5v1h-5zM59 13h11v1h-11zM77 13h5v1h-5zM84 13h5v1h-5zM92 13h12v1h-12zM107 13h5v1h-5zM120 13h4v1h-4zM132 13h5v1h-5zM140 13h4v1h-4zM148 13h4v1h-4zM154 13h6v1h-6zM162 13h4v1h-4zM44 14h5v1h-5zM51 14h5v1h-5zM59 14h11v1h-11zM77 14h5v1h-5zM84 14h5v1h-5zM92 14h12v1h-12zM107 14h5v1h-5zM120 14h4v1h-4zM132 14h5v1h-5zM139 14h5v1h-5zM148 14h1v1h-1zM28 15h5v1h-5zM36 15h5v1h-5zM44 15h5v1h-5zM51 15h5v1h-5zM59 15h10v1h-10zM77 15h4v1h-4zM84 15h5v1h-5zM92 15h5v1h-5zM99 15h5v1h-5zM107 15h5v1h-5zM119 15h5v1h-5zM23 16h9v1h-9zM36 16h5v1h-5zM44 16h5v1h-5zM51 16h5v1h-5zM59 16h10v1h-10zM77 16h4v1h-4zM84 16h4v1h-4zM92 16h4v1h-4zM99 16h5v1h-5zM107 16h4v1h-4zM22 17h11v1h-11zM36 17h4v1h-4zM44 17h5v1h-5zM51 17h5v1h-5zM59 17h5v1h-5zM67 17h2v1h-2zM76 17h5v1h-5zM84 17h4v1h-4zM22 18h12v1h-12zM36 18h4v1h-4zM44 18h5v1h-5zM51 18h4v1h-4zM59 18h4v1h-4zM22 19h4v1h-4zM29 19h5v1h-5zM36 19h4v1h-4zM43 19h7v1h-7zM51 19h1v1h-1zM21 20h5v1h-5zM29 20h4v1h-4zM144 64h8v1h-8zM125 65h5v1h-5zM142 65h9v1h-9zM108 66h22v1h-22zM141 66h9v1h-9zM87 67h16v1h-16zM107 67h23v1h-23zM140 67h9v1h-9zM68 68h5v1h-5zM80 68h23v1h-23zM107 68h23v1h-23zM139 68h5v1h-5zM49 69h8v1h-8zM63 69h10v1h-10zM80 69h23v1h-23zM106 69h22v1h-22zM30 70h11v1h-11zM46 70h10v1h-10zM63 70h11v1h-11zM80 70h23v1h-23zM106 70h7v1h-7zM15 71h10v1h-10zM30 71h11v1h-11zM46 71h10v1h-10zM63 71h11v1h-11zM79 71h18v1h-18zM15 72h10v1h-10zM30 72h11v1h-11zM45 72h11v1h-11zM62 72h13v1h-13zM78 72h4v1h-4zM15 73h10v1h-10zM30 73h10v1h-10zM44 73h13v1h-13zM62 73h5v1h-5zM14 74h10v1h-10zM29 74h10v1h-10zM44 74h7v1h-7zM13 75h10v1h-10zM28 75h8v1h-8zM13 76h7v1h-7z"/><path fill="#c8c8c8" d="M149 14h3v1h-3zM154 14h6v1h-6zM161 14h5v1h-5zM132 15h5v1h-5zM139 15h5v1h-5zM148 15h4v1h-4zM154 15h6v1h-6zM161 15h5v1h-5zM119 16h5v1h-5zM132 16h5v1h-5zM139 16h5v1h-5zM148 16h4v1h-4zM154 16h6v1h-6zM161 16h4v1h-4zM92 17h4v1h-4zM99 17h4v1h-4zM107 17h4v1h-4zM119 17h5v1h-5zM132 17h4v1h-4zM139 17h5v1h-5zM148 17h4v1h-4zM153 17h7v1h-7zM161 17h4v1h-4zM76 18h5v1h-5zM84 18h4v1h-4zM91 18h5v1h-5zM99 18h4v1h-4zM107 18h4v1h-4zM119 18h5v1h-5zM132 18h4v1h-4zM139 18h5v1h-5zM148 18h4v1h-4zM153 18h3v1h-3zM157 18h8v1h-8zM52 19h3v1h-3zM59 19h4v1h-4zM76 19h5v1h-5zM83 19h5v1h-5zM91 19h5v1h-5zM99 19h4v1h-4zM106 19h5v1h-5zM119 19h5v1h-5zM132 19h4v1h-4zM139 19h4v1h-4zM148 19h8v1h-8zM157 19h8v1h-8zM36 20h4v1h-4zM43 20h12v1h-12zM58 20h10v1h-10zM76 20h12v1h-12zM91 20h5v1h-5zM98 20h5v1h-5zM106 20h5v1h-5zM119 20h4v1h-4zM131 20h5v1h-5zM139 20h4v1h-4zM148 20h8v1h-8zM157 20h7v1h-7zM21 21h5v1h-5zM29 21h4v1h-4zM35 21h5v1h-5zM43 21h12v1h-12zM58 21h10v1h-10zM76 21h12v1h-12zM91 21h5v1h-5zM98 21h5v1h-5zM106 21h5v1h-5zM119 21h4v1h-4zM128 21h1v1h-1zM131 21h5v1h-5zM138 21h5v1h-5zM148 21h3v1h-3zM21 22h5v1h-5zM29 22h4v1h-4zM35 22h5v1h-5zM43 22h12v1h-12zM58 22h10v1h-10zM76 22h12v1h-12zM91 22h5v1h-5zM98 22h5v1h-5zM106 22h5v1h-5zM115 22h1v1h-1zM119 22h4v1h-4zM127 22h2v1h-2zM131 22h1v1h-1zM21 23h5v1h-5zM28 23h5v1h-5zM35 23h5v1h-5zM43 23h12v1h-12zM58 23h9v1h-9zM76 23h12v1h-12zM91 23h4v1h-4zM98 23h5v1h-5zM106 23h4v1h-4zM21 24h12v1h-12zM35 24h5v1h-5zM43 24h12v1h-12zM58 24h5v1h-5zM76 24h4v1h-4zM83 24h4v1h-4zM91 24h3v1h-3zM21 25h11v1h-11zM35 25h4v1h-4zM43 25h4v1h-4zM48 25h6v1h-6zM58 25h4v1h-4zM67 25h1v1h-1zM21 26h10v1h-10zM35 26h4v1h-4zM42 26h5v1h-5zM48 26h6v1h-6zM21 27h5v1h-5zM35 27h2v1h-2zM147 58h6v1h-6zM127 59h4v1h-4zM142 59h10v1h-10zM108 60h10v1h-10zM126 60h5v1h-5zM142 60h10v1h-10zM90 61h1v1h-1zM100 61h4v1h-4zM108 61h23v1h-23zM142 61h10v1h-10zM71 62h2v1h-2zM81 62h10v1h-10zM99 62h5v1h-5zM108 62h23v1h-23zM142 62h10v1h-10zM52 63h21v1h-21zM81 63h22v1h-22zM108 63h22v1h-22zM142 63h10v1h-10zM32 64h7v1h-7zM48 64h25v1h-25zM81 64h22v1h-22zM108 64h22v1h-22zM142 64h2v1h-2zM16 65h10v1h-10zM28 65h11v1h-11zM48 65h10v1h-10zM63 65h10v1h-10zM81 65h22v1h-22zM108 65h17v1h-17zM16 66h10v1h-10zM29 66h11v1h-11zM48 66h9v1h-9zM63 66h10v1h-10zM81 66h22v1h-22zM16 67h10v1h-10zM29 67h11v1h-11zM47 67h10v1h-10zM63 67h10v1h-10zM80 67h7v1h-7zM16 68h10v1h-10zM29 68h11v1h-11zM47 68h10v1h-10zM63 68h5v1h-5zM15 69h11v1h-11zM30 69h10v1h-10zM47 69h2v1h-2zM15 70h10v1h-10z"/><path fill="#e4e4e4" d="M151 21h4v1h-4zM157 21h7v1h-7zM132 22h11v1h-11zM148 22h7v1h-7zM156 22h8v1h-8zM114 23h2v1h-2zM118 23h11v1h-11zM131 23h12v1h-12zM148 23h7v1h-7zM156 23h7v1h-7zM94 24h1v1h-1zM98 24h4v1h-4zM106 24h10v1h-10zM118 24h11v1h-11zM131 24h12v1h-12zM148 24h7v1h-7zM156 24h7v1h-7zM76 25h4v1h-4zM83 25h4v1h-4zM91 25h11v1h-11zM106 25h10v1h-10zM118 25h11v1h-11zM131 25h12v1h-12zM148 25h2v1h-2zM58 26h4v1h-4zM66 26h2v1h-2zM75 26h5v1h-5zM83 26h4v1h-4zM90 26h12v1h-12zM105 26h11v1h-11zM118 26h10v1h-10zM130 26h4v1h-4zM37 27h2v1h-2zM42 27h5v1h-5zM48 27h6v1h-6zM57 27h11v1h-11zM75 27h5v1h-5zM82 27h5v1h-5zM90 27h12v1h-12zM105 27h11v1h-11zM118 27h1v1h-1zM21 28h4v1h-4zM34 28h5v1h-5zM42 28h5v1h-5zM48 28h6v1h-6zM57 28h11v1h-11zM75 28h5v1h-5zM82 28h5v1h-5zM90 28h12v1h-12zM20 29h5v1h-5zM34 29h5v1h-5zM42 29h5v1h-5zM48 29h6v1h-6zM57 29h11v1h-11zM75 29h4v1h-4zM81 29h5v1h-5zM157 29h8v1h-8zM20 30h5v1h-5zM34 30h5v1h-5zM42 30h5v1h-5zM48 30h6v1h-6zM57 30h10v1h-10zM137 30h10v1h-10zM156 30h7v1h-7zM20 31h5v1h-5zM34 31h5v1h-5zM42 31h5v1h-5zM48 31h6v1h-6zM120 31h4v1h-4zM136 31h9v1h-9zM155 31h3v1h-3zM20 32h4v1h-4zM33 32h6v1h-6zM110 32h13v1h-13zM137 32h2v1h-2zM19 33h4v1h-4zM89 33h7v1h-7zM111 33h9v1h-9zM83 34h13v1h-13zM58 35h14v1h-14zM42 36h2v1h-2zM57 36h6v1h-6zM27 37h16v1h-16zM22 38h3v1h-3zM143 51h10v1h-10zM143 52h10v1h-10zM109 53h10v1h-10zM143 53h10v1h-10zM82 54h10v1h-10zM109 54h10v1h-10zM143 54h10v1h-10zM63 55h10v1h-10zM82 55h10v1h-10zM109 55h10v1h-10zM143 55h10v1h-10zM51 56h9v1h-9zM63 56h10v1h-10zM82 56h10v1h-10zM109 56h10v1h-10zM143 56h10v1h-10zM25 57h17v1h-17zM50 57h10v1h-10zM63 57h10v1h-10zM82 57h10v1h-10zM109 57h10v1h-10zM128 57h3v1h-3zM143 57h10v1h-10zM17 58h24v1h-24zM50 58h23v1h-23zM82 58h10v1h-10zM109 58h10v1h-10zM128 58h3v1h-3zM143 58h4v1h-4zM19 59h20v1h-20zM50 59h23v1h-23zM81 59h11v1h-11zM101 59h3v1h-3zM108 59h11v1h-11zM17 60h21v1h-21zM49 60h24v1h-24zM81 60h10v1h-10zM100 60h4v1h-4zM16 61h22v1h-22zM49 61h24v1h-24zM81 61h9v1h-9zM16 62h11v1h-11zM28 62h10v1h-10zM49 62h22v1h-22zM16 63h10v1h-10zM28 63h11v1h-11zM49 63h3v1h-3zM16 64h10v1h-10zM28 64h4v1h-4z"/><path fill="#ffffff" d="M158 31h6v1h-6zM139 32h8v1h-8zM155 32h9v1h-9zM120 33h2v1h-2zM137 33h10v1h-10zM154 33h9v1h-9zM111 34h11v1h-11zM138 34h9v1h-9zM154 34h9v1h-9zM84 35h11v1h-11zM112 35h10v1h-10zM138 35h10v1h-10zM153 35h9v1h-9zM63 36h9v1h-9zM84 36h11v1h-11zM111 36h11v1h-11zM138 36h10v1h-10zM152 36h10v1h-10zM56 37h16v1h-16zM84 37h10v1h-10zM111 37h10v1h-10zM139 37h9v1h-9zM152 37h9v1h-9zM25 38h15v1h-15zM56 38h16v1h-16zM84 38h10v1h-10zM111 38h10v1h-10zM139 38h10v1h-10zM151 38h10v1h-10zM21 39h21v1h-21zM56 39h16v1h-16zM84 39h10v1h-10zM111 39h10v1h-10zM139 39h10v1h-10zM151 39h9v1h-9zM20 40h23v1h-23zM55 40h17v1h-17zM84 40h10v1h-10zM111 40h10v1h-10zM140 40h19v1h-19zM19 41h25v1h-25zM55 41h17v1h-17zM84 41h10v1h-10zM111 41h10v1h-10zM140 41h19v1h-19zM19 42h26v1h-26zM55 42h17v1h-17zM84 42h10v1h-10zM111 42h10v1h-10zM140 42h18v1h-18zM19 43h26v1h-26zM55 43h17v1h-17zM83 43h11v1h-11zM111 43h10v1h-10zM141 43h17v1h-17zM19 44h26v1h-26zM54 44h18v1h-18zM83 44h11v1h-11zM110 44h11v1h-11zM141 44h16v1h-16zM19 45h10v1h-10zM34 45h11v1h-11zM54 45h18v1h-18zM83 45h10v1h-10zM110 45h10v1h-10zM141 45h16v1h-16zM18 46h11v1h-11zM35 46h9v1h-9zM54 46h18v1h-18zM83 46h10v1h-10zM110 46h10v1h-10zM142 46h14v1h-14zM18 47h10v1h-10zM35 47h9v1h-9zM53 47h9v1h-9zM63 47h9v1h-9zM83 47h10v1h-10zM110 47h10v1h-10zM142 47h13v1h-13zM18 48h10v1h-10zM35 48h9v1h-9zM53 48h9v1h-9zM63 48h9v1h-9zM83 48h10v1h-10zM110 48h10v1h-10zM142 48h13v1h-13zM18 49h10v1h-10zM34 49h10v1h-10zM53 49h9v1h-9zM63 49h9v1h-9zM83 49h10v1h-10zM110 49h10v1h-10zM143 49h11v1h-11zM18 50h10v1h-10zM34 50h10v1h-10zM52 50h10v1h-10zM63 50h9v1h-9zM83 50h10v1h-10zM110 50h10v1h-10zM143 50h11v1h-11zM18 51h10v1h-10zM34 51h10v1h-10zM52 51h9v1h-9zM63 51h9v1h-9zM82 51h11v1h-11zM109 51h11v1h-11zM18 52h10v1h-10zM34 52h10v1h-10zM52 52h9v1h-9zM63 52h10v1h-10zM82 52h10v1h-10zM109 52h10v1h-10zM18 53h10v1h-10zM34 53h9v1h-9zM52 53h9v1h-9zM63 53h10v1h-10zM82 53h10v1h-10zM17 54h11v1h-11zM33 54h10v1h-10zM51 54h10v1h-10zM63 54h10v1h-10zM17 55h26v1h-26zM51 55h9v1h-9zM17 56h25v1h-25zM17 57h8v1h-8z"/></svg>